<svg data-wf-icon="PinFilledIcon" width="16" height="16" viewBox="0 0 16 16" fill="none" xmlns="http://www.w3.org/2000/svg"><path d="M9.85355 2.14646C9.73102 2.02392 9.55378 1.97357 9.38512 2.01339C9.21647 2.0532 9.08046 2.1775 9.02566 2.3419L8.10472 5.10473L5.34189 6.02567C5.17749 6.08047 5.05319 6.21648 5.01338 6.38513C4.97356 6.55379 5.02391 6.73103 5.14645 6.85356L6.79291 8.50003L3 12.2929V13H3.70711L7.50002 9.20714L9.14645 10.8536C9.26898 10.9761 9.44622 11.0264 9.61488 10.9866C9.78353 10.9468 9.91954 10.8225 9.97434 10.6581L10.8953 7.89529L13.6581 6.97435C13.8225 6.91955 13.9468 6.78354 13.9866 6.61489C14.0264 6.44623 13.9761 6.26899 13.8536 6.14646L9.85355 2.14646Z" fill="currentColor"></path></svg>