<svg data-wf-icon="CapabilityUserIcon" width="24" height="24" viewBox="0 0 24 24" fill="none" xmlns="http://www.w3.org/2000/svg">
	<path
		fill-rule="evenodd"
		clip-rule="evenodd"
		d="M12.5 4C10.0147 4 8 6.01472 8 8.5C8 10.1416 8.87905 11.5779 10.1921 12.3639C9.07296 12.7259 8.04392 13.3495 7.1967 14.1967C5.79018 15.6032 5 17.5109 5 19.5C5 19.6326 5.05268 19.7598 5.14645 19.8536C5.24021 19.9473 5.36739 20 5.5 20H19.5C19.7761 20 20 19.7761 20 19.5C20 17.5109 19.2098 15.6032 17.8033 14.1967C16.9561 13.3495 15.927 12.7259 14.8079 12.3639C16.121 11.5779 17 10.1416 17 8.5C17 6.01472 14.9853 4 12.5 4ZM9 8.5C9 6.567 10.567 5 12.5 5C14.433 5 16 6.567 16 8.5C16 10.433 14.433 12 12.5 12C10.567 12 9 10.433 9 8.5ZM7.90381 14.9038C9.12279 13.6848 10.7761 13 12.5 13C14.2239 13 15.8772 13.6848 17.0962 14.9038C18.1968 16.0044 18.8619 17.459 18.9808 19H6.01924C6.13807 17.459 6.80322 16.0044 7.90381 14.9038Z"
		fill="currentColor"
	></path>
	<g opacity="0.4">
		<path
			d="M11.5433 6.1903C11.6921 6.12865 11.8462 6.08169 12.0033 6.04983C12.274 5.99497 12.5 6.22386 12.5 6.5V8C12.5 8.27614 12.2761 8.5 12 8.5H10.5C10.2239 8.5 9.99497 8.27396 10.0498 8.00332C10.0817 7.8462 10.1287 7.69212 10.1903 7.54329C10.3159 7.23998 10.5001 6.96438 10.7322 6.73223C10.9644 6.50009 11.24 6.31594 11.5433 6.1903Z"
			fill="currentColor"
		></path>
		<path
			d="M12.5 14.5C12.5 14.2239 12.2757 13.9976 12.0007 14.0227C11.4496 14.073 10.9083 14.2062 10.3952 14.4187C9.72795 14.6951 9.12163 15.1002 8.61091 15.6109C8.10019 16.1216 7.69506 16.728 7.41866 17.3952C7.2957 17.6921 7.52779 18 7.84909 18H12C12.2761 18 12.5 17.7761 12.5 17.5V14.5Z"
			fill="currentColor"
		></path>
	</g>
</svg>
