<svg data-wf-icon="DeviceMobilePortraitIcon" width="24" height="24" viewBox="0 0 24 24" fill="none" xmlns="http://www.w3.org/2000/svg">
	<path d="M11 17H14V16H11V17Z" fill="currentColor"></path>
	<path
		fill-rule="evenodd"
		clip-rule="evenodd"
		d="M17 6.5C17 5.67157 16.3284 5 15.5 5H9.5C8.67157 5 8 5.67157 8 6.5V17.5C8 18.3284 8.67157 19 9.5 19H15.5C16.3284 19 17 18.3284 17 17.5V6.5ZM15.5 6C15.7761 6 16 6.22386 16 6.5V17.5C16 17.7761 15.7761 18 15.5 18H9.5C9.22386 18 9 17.7761 9 17.5V6.5C9 6.22386 9.22386 6 9.5 6L15.5 6Z"
		fill="currentColor"
	></path>
</svg>
