<svg data-wf-icon="EmptyNoCmsItems64Icon" width="64" height="64" viewBox="0 0 64 64" fill="none" xmlns="http://www.w3.org/2000/svg">
	<path
		opacity="0.2"
		fill-rule="evenodd"
		clip-rule="evenodd"
		d="M9 42.5V50.5C9 53.2839 11.3041 55.6616 14.6998 57.3136C18.1295 58.9821 22.8324 60 28 60C33.1676 60 37.8705 58.9821 41.3002 57.3136C44.6959 55.6616 47 53.2839 47 50.5V42.5C47 43.5975 46.6419 44.6319 46 45.5835V50.5C46 52.6866 44.1627 54.809 40.8627 56.4143C37.5967 58.0032 33.0497 59 28 59C22.9503 59 18.4033 58.0032 15.1373 56.4143C11.8373 54.809 10 52.6866 10 50.5V45.5835C9.35809 44.6319 9 43.5975 9 42.5Z"
		fill="currentColor"
	></path>
	<path
		opacity="0.4"
		fill-rule="evenodd"
		clip-rule="evenodd"
		d="M9 34.5V42.5C9 45.2839 11.3041 47.6616 14.6998 49.3136C18.1295 50.9821 22.8324 52 28 52C33.1676 52 37.8705 50.9821 41.3002 49.3136C44.6959 47.6616 47 45.2839 47 42.5V34.5C47 35.5975 46.6419 36.6319 46 37.5835V42.5C46 44.6866 44.1627 46.809 40.8627 48.4143C37.5967 50.0032 33.0497 51 28 51C22.9503 51 18.4033 50.0032 15.1373 48.4143C11.8373 46.809 10 44.6866 10 42.5V37.5835C9.35809 36.6319 9 35.5975 9 34.5Z"
		fill="currentColor"
	></path>
	<path
		fill-rule="evenodd"
		clip-rule="evenodd"
		d="M57 17C57 22.5228 52.5228 27 47 27C41.4772 27 37 22.5228 37 17C37 11.4772 41.4772 7 47 7C52.5228 7 57 11.4772 57 17ZM58 17C58 23.0751 53.0751 28 47 28C40.9249 28 36 23.0751 36 17C36 10.9249 40.9249 6 47 6C53.0751 6 58 10.9249 58 17ZM47.5002 10.9998V16.5H53.0002L53.0002 17.5H47.5002V23.0002H46.5002V17.5H40.9998L40.9998 16.5H46.5002V10.9998L47.5002 10.9998Z"
		fill="currentColor"
	></path>
	<path
		opacity="0.6"
		fill-rule="evenodd"
		clip-rule="evenodd"
		d="M36.0008 16.8696C33.5664 16.3105 30.8541 16 28 16C22.8324 16 18.1295 17.0179 14.6998 18.6864C11.3041 20.3384 9 22.7161 9 25.5V34.5C9 37.2839 11.3041 39.6616 14.6998 41.3136C18.1295 42.9821 22.8324 44 28 44C33.1676 44 37.8705 42.9821 41.3002 41.3136C44.6959 39.6616 47 37.2839 47 34.5V28C46.4122 28 45.8352 27.9539 45.2724 27.8651C44.4498 29.1785 42.9484 30.3997 40.8627 31.4143C37.5967 33.0032 33.0497 34 28 34C22.9503 34 18.4033 33.0032 15.1373 31.4143C11.8373 29.809 10 27.6866 10 25.5C10 23.3134 11.8373 21.191 15.1373 19.5857C18.4033 17.9968 22.9503 17 28 17C30.8926 17 33.6203 17.3271 36.0367 17.9052C36.0124 17.6067 36 17.3048 36 17C36 16.9565 36.0003 16.913 36.0008 16.8696ZM14.6998 32.3136C12.6428 31.3129 10.9863 30.0458 10 28.5835V34.5C10 36.6866 11.8373 38.809 15.1373 40.4143C18.4033 42.0032 22.9503 43 28 43C33.0497 43 37.5967 42.0032 40.8627 40.4143C44.1627 38.809 46 36.6866 46 34.5V28.5835C45.0137 30.0458 43.3572 31.3129 41.3002 32.3136C37.8705 33.9821 33.1676 35 28 35C22.8324 35 18.1295 33.9821 14.6998 32.3136Z"
		fill="currentColor"
	></path>
</svg>
