<svg data-wf-icon="ElementSymbolIcon" width="16" height="16" viewBox="0 0 16 16" fill="none" xmlns="http://www.w3.org/2000/svg">
	<path
		fill-rule="evenodd"
		clip-rule="evenodd"
		d="M8.47885 1.69144C8.18037 1.52863 7.81963 1.52863 7.52115 1.69144L2.52115 4.41871C2.19989 4.59395 2 4.93066 2 5.29661V10.703C2 11.0689 2.19989 11.4056 2.52115 11.5809L7.52115 14.3081C7.81963 14.471 8.18037 14.471 8.47885 14.3081L13.4789 11.5809C13.8001 11.4056 14 11.0689 14 10.703V5.29661C14 4.93066 13.8001 4.59395 13.4789 4.41871L8.47885 1.69144ZM3.54416 4.99979L8 2.56934L12.4558 4.99979L8 7.43025L3.54416 4.99979ZM3 5.84206L3 10.703L7.5 13.1575V8.29661L3 5.84206ZM8.5 13.1575L13 10.703V5.84206L8.5 8.29661V13.1575Z"
		fill="currentColor"
	></path>
</svg>
