<svg data-wf-icon="SettingsIcon" width="16" height="16" viewBox="0 0 16 16" fill="none" xmlns="http://www.w3.org/2000/svg">
	<path
		fill-rule="evenodd"
		clip-rule="evenodd"
		d="M3.30394 4.13401L5.95027 4.44964L7.00014 2H9.00011L10.05 4.44964L12.6962 4.13404L13.6962 5.86607L12.0997 8.00003L13.6962 10.134L12.6962 11.866L10.0499 11.5504L9.00014 14H7.00014L5.95031 11.5504L3.30397 11.8661L2.30397 10.134L3.90045 8.00004L2.30396 5.86604L3.30394 4.13401ZM6.86941 4.84356L7.65953 3H8.34071L9.13081 4.84356C9.30553 5.25125 9.72794 5.49513 10.1684 5.4426L12.1599 5.20509L12.5005 5.79501L11.299 7.40098C11.0333 7.75615 11.0333 8.24391 11.299 8.59907L12.5005 10.205L12.1599 10.795L10.1683 10.5575C9.72791 10.5049 9.3055 10.7488 9.13078 11.1565L8.34074 13H7.65953L6.86945 11.1565C6.69472 10.7488 6.27231 10.505 5.83188 10.5575L3.8403 10.795L3.49969 10.2051L4.70117 8.59907C4.96687 8.24391 4.96687 7.75616 4.70117 7.401L3.49968 5.79499L3.84027 5.20507L5.83184 5.4426C6.27228 5.49513 6.69468 5.25125 6.86941 4.84356ZM8.00003 9C8.55232 9 9.00003 8.55228 9.00003 8C9.00003 7.44772 8.55232 7 8.00003 7C7.44775 7 7.00003 7.44772 7.00003 8C7.00003 8.55228 7.44775 9 8.00003 9Z"
		fill="currentColor"
	></path>
</svg>
