<svg data-wf-icon="LogicIcon" width="24" height="24" viewBox="0 0 24 24" fill="none" xmlns="http://www.w3.org/2000/svg">
	<path
		d="M12 9V3H13V9H17.5C18.3284 9 19 9.67157 19 10.5V14H18V10.5C18 10.2239 17.7761 10 17.5 10H7.5C7.22386 10 7 10.2239 7 10.5V14H6V10.5C6 9.67157 6.67157 9 7.5 9H12Z"
		fill="currentColor"
	></path>
	<path
		d="M16.3536 20.3536L18.5 18.2071L20.6464 20.3536L21.3536 19.6464L19.2071 17.5L21.3536 15.3536L20.6464 14.6464L18.5 16.7929L16.3536 14.6464L15.6464 15.3536L17.7929 17.5L15.6464 19.6464L16.3536 20.3536Z"
		fill="currentColor"
	></path>
	<path
		fill-rule="evenodd"
		clip-rule="evenodd"
		d="M6.5 20C7.88071 20 9 18.8807 9 17.5C9 16.1193 7.88071 15 6.5 15C5.11929 15 4 16.1193 4 17.5C4 18.8807 5.11929 20 6.5 20ZM8 17.5C8 18.3284 7.32843 19 6.5 19C5.67157 19 5 18.3284 5 17.5C5 16.6716 5.67157 16 6.5 16C7.32843 16 8 16.6716 8 17.5Z"
		fill="currentColor"
	></path>
</svg>
