<svg data-wf-icon="DeviceTabletPortraitIcon" width="24" height="24" viewBox="0 0 24 24" fill="none" xmlns="http://www.w3.org/2000/svg">
	<path d="M9.99658 17L13.9966 17.0273L14.0034 16.0274L10.0034 16L9.99658 17Z" fill="currentColor"></path>
	<path
		fill-rule="evenodd"
		clip-rule="evenodd"
		d="M7.5 5C6.67157 5 6 5.67157 6 6.5V17.5C6 18.3284 6.67157 19 7.5 19H16.5C17.3284 19 18 18.3284 18 17.5V6.5C18 5.67157 17.3284 5 16.5 5H7.5ZM7 6.5C7 6.22386 7.22386 6 7.5 6H16.5C16.7761 6 17 6.22386 17 6.5V17.5C17 17.7761 16.7761 18 16.5 18H7.5C7.22386 18 7 17.7761 7 17.5V6.5Z"
		fill="currentColor"
	></path>
</svg>
