<svg data-wf-icon="EcommerceIcon" width="24" height="24" viewBox="0 0 24 24" fill="none" xmlns="http://www.w3.org/2000/svg">
	<path
		fill-rule="evenodd"
		clip-rule="evenodd"
		d="M7.70955 9.99996H16.2905L14.0292 3.66812L14.9709 3.33179L17.3524 9.99996H19.8063C20.4889 9.99996 20.9709 10.6687 20.755 11.3162L18.2023 18.9743C17.9981 19.5868 17.4249 20 16.7793 20H7.22081C6.57516 20 6.00195 19.5868 5.79778 18.9743L3.24508 11.3162C3.02923 10.6687 3.5112 9.99996 4.19376 9.99996H6.64769L9.02918 3.33179L9.97092 3.66812L7.70955 9.99996ZM4.19376 11H19.8063L17.2536 18.6581C17.1856 18.8622 16.9945 19 16.7793 19H7.22081C7.00559 19 6.81452 18.8622 6.74646 18.6581L4.19376 11Z"
		fill="currentColor"
	></path>
	<path
		opacity="0.4"
		d="M7.52566 16.577L6.21937 12.6581C6.11145 12.3343 6.35243 12 6.69371 12H9.30629C9.64757 12 9.88855 12.3343 9.78063 12.6581L8.47434 16.577C8.32239 17.0328 7.67761 17.0328 7.52566 16.577Z"
		fill="currentColor"
	></path>
</svg>
