<svg data-wf-icon="ToolbarSearchIcon" width="24" height="24" viewBox="0 0 24 24" fill="none" xmlns="http://www.w3.org/2000/svg">
	<path
		fill-rule="evenodd"
		clip-rule="evenodd"
		d="M14.8744 15.5815C13.8291 16.4664 12.4769 17 11 17C7.68629 17 5 14.3137 5 11C5 7.68629 7.68629 5 11 5C14.3137 5 17 7.68629 17 11C17 12.4769 16.4664 13.8291 15.5815 14.8744L19.3536 18.6464L18.6464 19.3536L14.8744 15.5815ZM16 11C16 13.7614 13.7614 16 11 16C8.23858 16 6 13.7614 6 11C6 8.23858 8.23858 6 11 6C13.7614 6 16 8.23858 16 11Z"
		fill="currentColor"
	></path>
	<path
		opacity="0.4"
		d="M8.52513 13.4749C8.32986 13.6701 8.01038 13.6718 7.84099 13.4537C7.29878 12.7557 7 11.8932 7 11C7 9.93913 7.42143 8.92172 8.17157 8.17157C8.92172 7.42143 9.93913 7 11 7C11.8932 7 12.7557 7.29878 13.4537 7.84099C13.6718 8.01038 13.6701 8.32986 13.4749 8.52513L11 11L8.52513 13.4749Z"
		fill="currentColor"
	></path>
</svg>
