<svg data-wf-icon="CapabilityAppsIcon" width="24" height="24" viewBox="0 0 24 24" fill="none" xmlns="http://www.w3.org/2000/svg">
	<path
		opacity="0.4"
		d="M6 7.79289V6.5C6 6.22386 6.22386 6 6.5 6H7.79289C8.23835 6 8.46143 6.53857 8.14645 6.85355L6.85355 8.14645C6.53857 8.46143 6 8.23835 6 7.79289Z"
		fill="currentColor"
	></path>
	<path
		fill-rule="evenodd"
		clip-rule="evenodd"
		d="M11 5.5C11 4.67157 10.3284 4 9.5 4H5.5C4.67157 4 4 4.67157 4 5.5V9.5C4 10.3284 4.67157 11 5.5 11H9.5C10.3284 11 11 10.3284 11 9.5V5.5ZM9.5 5C9.77614 5 10 5.22386 10 5.5V9.5C10 9.77614 9.77614 10 9.5 10H5.5C5.22386 10 5 9.77614 5 9.5V5.5C5 5.22386 5.22386 5 5.5 5H9.5Z"
		fill="currentColor"
	></path>
	<path
		fill-rule="evenodd"
		clip-rule="evenodd"
		d="M19 5.5C19 4.67157 18.3284 4 17.5 4H13.5C12.6716 4 12 4.67157 12 5.5V9.5C12 10.3284 12.6716 11 13.5 11H17.5C18.3284 11 19 10.3284 19 9.5V5.5ZM17.5 5C17.7761 5 18 5.22386 18 5.5V9.5C18 9.77614 17.7761 10 17.5 10H13.5C13.2239 10 13 9.77614 13 9.5V5.5C13 5.22386 13.2239 5 13.5 5H17.5Z"
		fill="currentColor"
	></path>
	<path
		fill-rule="evenodd"
		clip-rule="evenodd"
		d="M5.5 12C4.67157 12 4 12.6716 4 13.5V17.5C4 18.3284 4.67157 19 5.5 19H9.5C10.3284 19 11 18.3284 11 17.5V13.5C11 12.6716 10.3284 12 9.5 12H5.5ZM5 13.5C5 13.2239 5.22386 13 5.5 13H9.5C9.77614 13 10 13.2239 10 13.5V17.5C10 17.7761 9.77614 18 9.5 18H5.5C5.22386 18 5 17.7761 5 17.5V13.5Z"
		fill="currentColor"
	></path>
	<path d="M15 15H12V16H15V19H16V16H19V15H16V12H15V15Z" fill="currentColor"></path>
</svg>
