<svg data-wf-icon="DeviceMobileLandscapeIcon" width="24" height="24" viewBox="0 0 24 24" fill="none" xmlns="http://www.w3.org/2000/svg">
	<path d="M17 13V10H16V13H17Z" fill="currentColor"></path>
	<path
		fill-rule="evenodd"
		clip-rule="evenodd"
		d="M5 8.5V14.5C5 15.3284 5.67157 16 6.5 16L17.5 16C18.3284 16 19 15.3284 19 14.5V8.5C19 7.67157 18.3284 7 17.5 7H6.5C5.67157 7 5 7.67157 5 8.5ZM6 14.5L6 8.5C6 8.22386 6.22386 8 6.5 8L17.5 8C17.7761 8 18 8.22386 18 8.5V14.5C18 14.7761 17.7761 15 17.5 15L6.5 15C6.22386 15 6 14.7761 6 14.5Z"
		fill="currentColor"
	></path>
</svg>
