<svg data-wf-icon="AssetManagerIcon" width="24" height="24" viewBox="0 0 24 24" fill="none" xmlns="http://www.w3.org/2000/svg">
	<path d="M9 10C9.55228 10 10 9.55228 10 9C10 8.44772 9.55228 8 9 8C8.44772 8 8 8.44772 8 9C8 9.55228 8.44772 10 9 10Z" fill="currentColor"></path>
	<path
		fill-rule="evenodd"
		clip-rule="evenodd"
		d="M5 6.5C5 5.67157 5.67157 5 6.5 5H18.5C19.3284 5 20 5.67157 20 6.5V18.5C20 19.3284 19.3284 20 18.5 20H6.5C5.67157 20 5 19.3284 5 18.5V6.5ZM6.5 6C6.22386 6 6 6.22386 6 6.5V18.2929L12.5 11.7929L19 18.2929V6.5C19 6.22386 18.7761 6 18.5 6H6.5ZM12.5 13.2071L18.2929 19H6.70711L12.5 13.2071Z"
		fill="currentColor"
	></path>
	<g opacity="0.4">
		<path d="M9.79307 1.30827C10.1836 0.91775 10.8168 0.91775 11.2073 1.30827L13.899 3.99994H7.1014L9.79307 1.30827Z" fill="currentColor"></path>
		<path d="M3.99993 7.10141V13.8999L1.30779 11.2078C0.917262 10.8172 0.917261 10.1841 1.30779 9.79356L3.99993 7.10141Z" fill="currentColor"></path>
		<path d="M12.5 18.9999H8L11.6464 15.3535C11.9614 15.0385 12.5 15.2616 12.5 15.707V18.9999Z" fill="currentColor"></path>
	</g>
</svg>
