<svg data-wf-icon="TopbarCheckCircleIcon" width="16" height="16" viewBox="0 0 16 16" fill="none" xmlns="http://www.w3.org/2000/svg">
	<path
		fill-rule="evenodd"
		clip-rule="evenodd"
		d="M12.3535 5.35359L7.85346 9.85359C7.75969 9.94736 7.63252 10 7.49991 10C7.3673 10 7.24012 9.94736 7.14636 9.85359L4.64636 7.35359L5.35347 6.64649L7.49991 8.79293L11.6464 4.64648L12.3535 5.35359Z"
		fill="currentColor"
	></path>
	<path
		opacity="0.4"
		fill-rule="evenodd"
		clip-rule="evenodd"
		d="M16 7.5C16 11.6421 12.6421 15 8.5 15C4.35786 15 1 11.6421 1 7.5C1 3.35786 4.35786 0 8.5 0C12.6421 0 16 3.35786 16 7.5ZM8.5 14C12.0899 14 15 11.0899 15 7.5C15 3.91015 12.0899 1 8.5 1C4.91015 1 2 3.91015 2 7.5C2 11.0899 4.91015 14 8.5 14Z"
		fill="currentColor"
	></path>
</svg>
