<svg data-wf-icon="PerformanceIcon" width="16" height="16" viewBox="0 0 16 16" fill="none" xmlns="http://www.w3.org/2000/svg">
	<path
		d="M3.05451 5.00098C4.36814 3.71845 6.1473 3 8 3C9.69666 3 11.3316 3.60252 12.6039 4.68901L13.1464 4.14645L13.8536 4.85355L8.35355 10.3536C8.15829 10.5488 7.84171 10.5488 7.64645 10.3536C7.45118 10.1583 7.45118 9.84171 7.64645 9.64645L11.8942 5.39868C10.8133 4.50009 9.434 4 8 4C6.40489 4 4.87745 4.61877 3.7531 5.71651C2.62916 6.81385 2 8.29957 2 9.84615V11H1V9.84615C1 8.02652 1.74048 6.28391 3.05451 5.00098Z"
		fill="currentColor"
	></path>
	<path
		d="M13.303 7.11126L14.0357 6.37852C14.6614 7.42028 15 8.6156 15 9.84615V11H14V9.84615C14 8.88478 13.7569 7.94693 13.303 7.11126Z"
		fill="currentColor"
	></path>
</svg>
