<svg data-wf-icon="EmptyNoUsers64Icon" width="64" height="64" viewBox="0 0 64 64" fill="none" xmlns="http://www.w3.org/2000/svg">
	<path
		fill-rule="evenodd"
		clip-rule="evenodd"
		d="M36 27C36 29.2091 34.2091 31 32 31C29.7909 31 28 29.2091 28 27C28 24.7909 29.7909 23 32 23C34.2091 23 36 24.7909 36 27ZM37 27C37 29.7614 34.7614 32 32 32C29.2386 32 27 29.7614 27 27C27 24.2386 29.2386 22 32 22C34.7614 22 37 24.2386 37 27ZM23 38.5C23 36.567 24.567 35 26.5 35H37.5C39.433 35 41 36.567 41 38.5V41H42V38.5C42 36.0147 39.9853 34 37.5 34H26.5C24.0147 34 22 36.0147 22 38.5V41H23V38.5Z"
		fill="currentColor"
	></path>
	<path
		opacity="0.4"
		fill-rule="evenodd"
		clip-rule="evenodd"
		d="M19.855 28.595C19.9023 28.9518 19.7542 29.3066 19.4672 29.5239C16.7514 31.5795 15 34.835 15 38.5V41C15 44.866 18.134 48 22 48H42C45.866 48 49 44.866 49 41V38.5C49 34.8229 47.2369 31.5579 44.5057 29.5034C44.213 29.2832 44.0641 28.9205 44.1176 28.558C44.2048 27.9685 44.25 27.3649 44.25 26.75C44.25 19.9845 38.7655 14.5 32 14.5C25.2345 14.5 19.75 19.9845 19.75 26.75V27C19.75 27.5412 19.7858 28.0736 19.855 28.595ZM18.8636 28.7265C18.7887 28.1617 18.75 27.5853 18.75 27V26.75C18.75 19.4322 24.6822 13.5 32 13.5C39.3178 13.5 45.25 19.4322 45.25 26.75C45.25 27.414 45.2012 28.0665 45.1069 28.7043C48.0784 30.9395 50 34.4953 50 38.5V41C50 45.4183 46.4183 49 42 49H22C17.5817 49 14 45.4183 14 41V38.5C14 34.5086 15.9089 30.963 18.8636 28.7265Z"
		fill="currentColor"
	></path>
	<path
		opacity="0.2"
		fill-rule="evenodd"
		clip-rule="evenodd"
		d="M52.446 26.0659C52.3067 25.9014 52.2242 25.6963 52.2109 25.4812C51.5566 14.889 42.7576 6.5 32 6.5C21.2424 6.5 12.4434 14.889 11.7891 25.4812C11.7758 25.6963 11.6933 25.9014 11.554 26.0659C8.71258 29.4207 7 33.759 7 38.5V41C7 49.2843 13.7157 56 22 56H42C50.2843 56 57 49.2843 57 41V38.5C57 33.759 55.2874 29.4207 52.446 26.0659ZM10.791 25.4195C7.80229 28.9482 6 33.5136 6 38.5V41C6 49.8366 13.1634 57 22 57H42C50.8366 57 58 49.8366 58 41V38.5C58 33.5136 56.1977 28.9482 53.209 25.4195C52.5223 14.3033 43.2892 5.5 32 5.5C20.7108 5.5 11.4777 14.3033 10.791 25.4195Z"
		fill="currentColor"
	></path>
</svg>
