<svg data-wf-icon="PublishIcon" width="16" height="16" viewBox="0 0 16 16" fill="none" xmlns="http://www.w3.org/2000/svg">
	<path
		d="M8 7.5C8.55228 7.5 9 7.05228 9 6.5C9 5.94772 8.55228 5.5 8 5.5C7.44772 5.5 7 5.94772 7 6.5C7 7.05228 7.44772 7.5 8 7.5Z"
		fill="currentColor"
	></path>
	<path
		fill-rule="evenodd"
		clip-rule="evenodd"
		d="M8.20852 2.08964C8.07612 2.02887 7.92379 2.02888 7.79139 2.08965C5.61488 3.08861 4.08392 5.2556 4.00334 7.7896L2.14645 9.6465C2.05268 9.74026 2 9.86744 2 10.0001V13.5C2 13.6932 2.1113 13.8692 2.28588 13.9519C2.46047 14.0346 2.66709 14.0094 2.81662 13.887L5.27894 11.8724C5.92796 12.7461 6.79119 13.4513 7.79148 13.9104C7.92388 13.9712 8.07621 13.9712 8.20861 13.9104C9.20887 13.4513 10.0721 12.7461 10.7211 11.8724L13.1834 13.887C13.3329 14.0094 13.5395 14.0346 13.7141 13.9519C13.8887 13.8692 14 13.6932 14 13.5V10.0001C14 9.86744 13.9473 9.74026 13.8536 9.6465L11.9967 7.7896C11.9161 5.25558 10.3851 3.08858 8.20852 2.08964ZM5 8.00001C5 5.86346 6.21827 4.01049 7.99996 3.09961C9.78169 4.01047 11 5.86347 11 8.00004C11 8.13265 11.0527 8.25984 11.1464 8.3536L13 10.2072V12.4449L10.931 10.7521C10.8193 10.6607 10.6736 10.6221 10.5313 10.646C10.3891 10.67 10.2641 10.7542 10.1885 10.8771C9.65993 11.7364 8.90173 12.4394 8.00003 12.9004C7.09831 12.4394 6.3401 11.7364 5.81154 10.8771C5.73595 10.7542 5.61096 10.67 5.46868 10.646C5.3264 10.622 5.18071 10.6607 5.06904 10.7521L3 12.4449V10.2072L4.85355 8.3536C4.94732 8.25984 5 8.13261 5 8.00001Z"
		fill="currentColor"
	></path>
</svg>
