<svg data-wf-icon="EmptyNoEcommerce64Icon" width="64" height="64" viewBox="0 0 64 64" fill="none" xmlns="http://www.w3.org/2000/svg">
	<path
		opacity="0.4"
		fill-rule="evenodd"
		clip-rule="evenodd"
		d="M20.5 56C21.8807 56 23 54.8807 23 53.5C23 52.1193 21.8807 51 20.5 51C19.1193 51 18 52.1193 18 53.5C18 54.8807 19.1193 56 20.5 56ZM45.5 56C46.8807 56 48 54.8807 48 53.5C48 52.1193 46.8807 51 45.5 51C44.1193 51 43 52.1193 43 53.5C43 54.8807 44.1193 56 45.5 56Z"
		fill="currentColor"
	></path>
	<path
		opacity="0.6"
		fill-rule="evenodd"
		clip-rule="evenodd"
		d="M15.5 16H8V17H15.5C16.8807 17 18 18.1193 18 19.5V22V22.5V27.1667V43.103C18 45.5582 20.4621 47.2503 22.7542 46.3705L49.7542 36.0069C51.107 35.4876 52 34.1884 52 32.7393V25.5C52 23.567 50.433 22 48.5 22H45.5V23H48.5C49.8807 23 51 24.1193 51 25.5V32.7393C51 33.7744 50.3622 34.7024 49.3959 35.0733L22.3959 45.4369C20.7586 46.0654 19 44.8567 19 43.103V27.1667V23H24.5251V22H19V19.5C19 17.567 17.433 16 15.5 16Z"
		fill="currentColor"
	></path>
	<path
		fill-rule="evenodd"
		clip-rule="evenodd"
		d="M45 21C45 26.5228 40.5228 31 35 31C29.4772 31 25 26.5228 25 21C25 15.4772 29.4772 11 35 11C40.5228 11 45 15.4772 45 21ZM46 21C46 27.0751 41.0751 32 35 32C28.9249 32 24 27.0751 24 21C24 14.9249 28.9249 10 35 10C41.0751 10 46 14.9249 46 21ZM34.4998 14.9998V20.5H28.9998L28.9998 21.5H34.4998V27.0002H35.4998V21.5H41.0002L41.0002 20.5H35.4998V14.9998L34.4998 14.9998Z"
		fill="currentColor"
	></path>
</svg>
