<svg data-wf-icon="CommentIcon" width="16" height="16" viewBox="0 0 16 16" fill="none" xmlns="http://www.w3.org/2000/svg">
	<path d="M4.5 7H11.5V6H4.5V7Z" fill="currentColor"></path>
	<path d="M4.5 10H8V9H4.5V10Z" fill="currentColor"></path>
	<path
		fill-rule="evenodd"
		clip-rule="evenodd"
		d="M8.5 0C4.35786 0 1 3.35786 1 7.5V13.5C1 14.3284 1.67157 15 2.5 15H8.5C12.6421 15 16 11.6421 16 7.5C16 3.35786 12.6421 0 8.5 0ZM2 7.5C2 3.91015 4.91015 1 8.5 1C12.0899 1 15 3.91015 15 7.5C15 11.0899 12.0899 14 8.5 14H2.5C2.22386 14 2 13.7761 2 13.5V7.5Z"
		fill="currentColor"
	></path>
</svg>
