<svg data-wf-icon="ShowIcon" width="16" height="16" viewBox="0 0 16 16" fill="none" xmlns="http://www.w3.org/2000/svg">
	<path
		d="M7.99988 9.5C8.82831 9.5 9.49988 8.82843 9.49988 8C9.49988 7.17157 8.82831 6.5 7.99988 6.5C7.17145 6.5 6.49988 7.17157 6.49988 8C6.49988 8.82843 7.17145 9.5 7.99988 9.5Z"
		fill="currentColor"
	></path>
	<path
		fill-rule="evenodd"
		clip-rule="evenodd"
		d="M7.99992 4C5.37585 4 3.11601 5.55492 2.08952 7.79148C2.02875 7.92388 2.02875 8.07621 2.08952 8.20861C3.11603 10.4451 5.37585 12 7.99988 12C10.624 12 12.8838 10.4451 13.9103 8.20852C13.9711 8.07612 13.9711 7.92379 13.9103 7.79139C12.8838 5.55488 10.624 4 7.99992 4ZM7.99988 11C5.86334 11 4.01036 9.78173 3.09949 8.00004C4.01035 6.21831 5.86335 5 7.99992 5C10.1365 5 11.9894 6.21827 12.9003 7.99996C11.9895 9.78169 10.1365 11 7.99988 11Z"
		fill="currentColor"
	></path>
</svg>
