<svg data-wf-icon="ToolbarSettingsIcon" width="24" height="24" viewBox="0 0 24 24" fill="none" xmlns="http://www.w3.org/2000/svg">
	<path
		d="M11.9999 13C12.5522 13 12.9999 12.5523 12.9999 12C12.9999 11.4477 12.5522 11 11.9999 11C11.4477 11 10.9999 11.4477 10.9999 12C10.9999 12.5523 11.4477 13 11.9999 13Z"
		fill="currentColor"
	></path>
	<path
		fill-rule="evenodd"
		clip-rule="evenodd"
		d="M11.3465 4C10.9296 4 10.5565 4.25857 10.4102 4.64888L9.36498 7.43602L6.42867 6.94761C6.01748 6.87921 5.60699 7.07305 5.39857 7.43405L4.74507 8.56595C4.53664 8.92695 4.57401 9.37936 4.83884 9.70127L6.73001 12L4.83889 14.2987C4.57406 14.6206 4.53669 15.073 4.74511 15.434L5.39861 16.5659C5.60703 16.9269 6.01752 17.1208 6.42872 17.0524L9.36497 16.564L10.4102 19.3511C10.5565 19.7414 10.9296 20 11.3465 20H12.6535C13.0703 20 13.4435 19.7414 13.5898 19.3511L14.635 16.564L17.5714 17.0524C17.9826 17.1208 18.3931 16.9269 18.6015 16.5659L19.255 15.4341C19.4634 15.0731 19.426 14.6206 19.1612 14.2987L17.2701 12L19.1612 9.70125C19.4261 9.37934 19.4634 8.92692 19.255 8.56592L18.6015 7.43403C18.3931 7.07303 17.9826 6.87918 17.5714 6.94758L14.635 7.43602L13.5898 4.64888C13.4435 4.25857 13.0703 4 12.6535 4H11.3465ZM11.3465 5H12.6535L13.6987 7.78714C13.8665 8.23469 14.3276 8.50089 14.7991 8.42246L17.7355 7.93403L18.389 9.06592L16.4978 11.3647C16.1941 11.7338 16.1941 12.2662 16.4978 12.6353L18.3889 14.9341L17.7354 16.0659L14.7991 15.5775C14.3276 15.4991 13.8665 15.7653 13.6987 16.2128L12.6535 19H11.3465L10.3013 16.2128C10.1335 15.7653 9.67239 15.4991 9.20089 15.5775L6.26463 16.0659L5.61113 14.934L7.50225 12.6353C7.80593 12.2662 7.80593 11.7338 7.50225 11.3647L5.61109 9.06595L6.26459 7.93405L9.2009 8.42247C9.6724 8.5009 10.1335 8.23469 10.3013 7.78715L11.3465 5Z"
		fill="currentColor"
	></path>
</svg>
