<svg data-wf-icon="CapabilityCMSIcon" width="24" height="24" viewBox="0 0 24 24" fill="none" xmlns="http://www.w3.org/2000/svg">
	<path
		opacity="0.4"
		d="M12 10C15.3137 10 18 8.65685 18 7C18 5.34315 15.3137 4 12 4C8.68629 4 6 5.34315 6 7C6 8.65685 8.68629 10 12 10Z"
		fill="currentColor"
	></path>
	<path
		fill-rule="evenodd"
		clip-rule="evenodd"
		d="M12 2C9.86348 2 7.90442 2.46079 6.46141 3.2304C5.03988 3.98854 4 5.12088 4 6.5V17.5C4 18.8791 5.03988 20.0115 6.46141 20.7696C7.90442 21.5392 9.86348 22 12 22C14.1365 22 16.0956 21.5392 17.5386 20.7696C18.9601 20.0115 20 18.8791 20 17.5V6.5C20 5.12088 18.9601 3.98854 17.5386 3.2304C16.0956 2.46079 14.1365 2 12 2ZM19 11.5V6.5C19 5.66998 18.3609 4.80232 17.068 4.11275C15.7966 3.43464 14.0056 3 12 3C9.99439 3 8.20345 3.43464 6.93199 4.11275C5.63905 4.80232 5 5.66998 5 6.5V11.5C5 12.33 5.63905 13.1977 6.93199 13.8873C8.20345 14.5654 9.99439 15 12 15C14.0056 15 15.7966 14.5654 17.068 13.8873C18.3609 13.1977 19 12.33 19 11.5ZM5 13.7079C5.40119 14.1146 5.90172 14.4711 6.46141 14.7696C7.90442 15.5392 9.86348 16 12 16C14.1365 16 16.0956 15.5392 17.5386 14.7696C18.0983 14.4711 18.5988 14.1146 19 13.7079V17.5C19 18.33 18.3609 19.1977 17.068 19.8873C15.7966 20.5654 14.0056 21 12 21C9.99439 21 8.20345 20.5654 6.93199 19.8873C5.63905 19.1977 5 18.33 5 17.5V13.7079Z"
		fill="currentColor"
	></path>
</svg>
