<svg data-wf-icon="EmptyNoSelection64Icon" width="64" height="64" viewBox="0 0 64 64" fill="none" xmlns="http://www.w3.org/2000/svg">
	<path
		opacity="0.4"
		fill-rule="evenodd"
		clip-rule="evenodd"
		d="M26.1118 2.73608L24.9826 9.84224L25.9704 9.99818L27.0995 2.89203L26.1118 2.73608ZM13.1685 18.3989L6.03876 17.2733L5.88184 18.2609L13.0116 19.3865L13.1685 18.3989ZM32.2503 13.8326L38.0896 9.6038L38.6783 10.4115L32.839 14.6404L32.2503 13.8326ZM8.88977 30.7503L14.729 26.5215L15.3177 27.3292L9.4785 31.558L8.88977 30.7503ZM17.8282 11.557L13.5846 5.73501L12.7742 6.32184L17.0179 12.1438L17.8282 11.557Z"
		fill="currentColor"
	></path>
	<path
		fill-rule="evenodd"
		clip-rule="evenodd"
		d="M23.1829 18.7043C22.4778 18.2913 21.6194 18.8982 21.7659 19.6894L28.2065 54.4649C28.3638 55.314 29.4968 55.5262 29.9519 54.7822L35.829 45.1736C36.1981 44.5702 37.0666 44.5416 37.4736 45.1206L45.4011 56.3977C45.7011 56.8245 46.2939 56.9293 46.7248 56.6288L49.4968 54.6955C49.9266 54.3957 50.0299 53.8079 49.7307 53.3822L41.8032 42.1051C41.3941 41.5232 41.7222 40.7181 42.4157 40.5795L53.4906 38.3648C54.3481 38.1934 54.5349 37.0643 53.7875 36.6266L23.1829 18.7043ZM20.7824 19.8717C20.4783 18.2296 22.2523 17.0004 23.6887 17.8416L54.2933 35.7639C55.8393 36.6693 55.4394 38.9947 53.6865 39.3452L42.6387 41.5544L50.5491 52.8073C51.1677 53.6873 50.9514 54.8999 50.069 55.5153L47.297 57.4487C46.4156 58.0634 45.2005 57.8516 44.5827 56.9727L36.6695 45.716L30.8052 55.3035C29.8751 56.8242 27.5484 56.4041 27.223 54.6472L20.7824 19.8717Z"
		fill="currentColor"
	></path>
</svg>
